<svg width="40" height="40" viewBox="0 0 40 40" fill="none" xmlns="http://www.w3.org/2000/svg">
  <!-- Orange background -->
  <rect width="40" height="40" fill="#F97316"/>
  
  <!-- Dark grey/black phoenix silhouette - wings spread upward -->
  <path d="M20 8 
           L23 11 
           L25 9 
           L26.5 13 
           L28 11 
           L30 15 
           L29 17 
           L32 20 
           L29 23 
           L30 27 
           L27 29 
           L26 33 
           L23 31 
           L20 35 
           L17 31 
           L14 33 
           L13 29 
           L10 27 
           L11 23 
           L8 20 
           L11 17 
           L10 15 
           L12 11 
           L13.5 13 
           L15 9 
           L17 11 
           Z" 
        fill="#1F2937"/>
  
  <!-- Head detail - facing right with beak and crest -->
  <path d="M26.5 11 L28 9.5 L27 9 Z" fill="#111827"/>
  <path d="M27.5 8.5 L28 7.5 L27.5 7 Z" fill="#111827"/>
  
  <!-- Wing feather details for more depth -->
  <path d="M25 11 L24 13 L23 11 Z" fill="#111827"/>
  <path d="M15 11 L16 13 L17 11 Z" fill="#111827"/>
  
  <!-- Body taper detail -->
  <path d="M20 18 L18.5 22 L20 26 L21.5 22 Z" fill="#111827"/>
</svg>
